<?xml version="1.0" encoding="utf-8"?>
<!-- Generator: Adobe Illustrator 18.1.1, SVG Export Plug-In . SVG Version: 6.00 Build 0)  -->
<!DOCTYPE svg PUBLIC "-//W3C//DTD SVG 1.1//EN" "http://www.w3.org/Graphics/SVG/1.1/DTD/svg11.dtd">
<svg version="1.1" id="Calque_1" xmlns="http://www.w3.org/2000/svg" xmlns:xlink="http://www.w3.org/1999/xlink" x="0px" y="0px"
	 viewBox="0 0 150 60" enable-background="new 0 0 150 60" xml:space="preserve">
<g>
	<path fill="#FFFFFF" d="M2.1,24.4v-2.5h8v10.8c0,1.9-0.5,3.3-1.5,4.3c-1,1-2.2,1.4-3.7,1.4c-1.9,0-3.5-0.7-4.9-2l1.6-2.2
		c1.1,1,2.1,1.5,3.1,1.5c0.7,0,1.3-0.2,1.8-0.7s0.8-1.2,0.8-2.2v-8.4H2.1z"/>
	<path fill="#FFFFFF" d="M28.1,36c-1.7,1.6-3.7,2.4-6.1,2.4s-4.5-0.8-6.1-2.4c-1.7-1.6-2.5-3.6-2.5-6c0-2.4,0.8-4.4,2.5-6
		c1.7-1.6,3.7-2.4,6.1-2.4s4.5,0.8,6.1,2.4c1.7,1.6,2.5,3.6,2.5,6C30.6,32.4,29.8,34.4,28.1,36z M26.1,25.8
		c-1.1-1.2-2.5-1.7-4.1-1.7s-3,0.6-4.1,1.7c-1.1,1.2-1.7,2.6-1.7,4.2s0.6,3,1.7,4.2c1.1,1.2,2.5,1.7,4.1,1.7s3-0.6,4.1-1.7
		c1.1-1.2,1.7-2.6,1.7-4.2S27.2,26.9,26.1,25.8z"/>
	<path fill="#FFFFFF" d="M34.1,38.3V21.9h2.8V29h8.1v-7.1h2.8v16.3h-2.8v-6.7h-8.1v6.7H34.1z"/>
	<path fill="#FFFFFF" d="M64.5,21.9h2.8v16.3h-3L55,26.4v11.9h-2.8V21.9H55l9.5,12.2V21.9z"/>
	<path fill="#FFFFFF" d="M84.2,24.1c1.6,1.4,2.4,3.4,2.4,6c0,2.5-0.8,4.6-2.3,6c-1.5,1.5-3.9,2.2-7,2.2h-5.4V21.9h5.6
		C80.3,21.9,82.6,22.6,84.2,24.1z M83.7,30.1c0-3.7-2.1-5.6-6.4-5.6h-2.8v11.2h3.1c2,0,3.5-0.5,4.5-1.4
		C83.2,33.3,83.7,31.9,83.7,30.1z"/>
	<path fill="#FFFFFF" d="M103.8,36c-1.7,1.6-3.7,2.4-6.1,2.4c-2.4,0-4.5-0.8-6.1-2.4c-1.7-1.6-2.5-3.6-2.5-6c0-2.4,0.8-4.4,2.5-6
		c1.7-1.6,3.7-2.4,6.1-2.4c2.4,0,4.5,0.8,6.1,2.4c1.7,1.6,2.5,3.6,2.5,6C106.2,32.4,105.4,34.4,103.8,36z M101.7,25.8
		c-1.1-1.2-2.5-1.7-4.1-1.7c-1.6,0-3,0.6-4.1,1.7c-1.1,1.2-1.7,2.6-1.7,4.2s0.6,3,1.7,4.2c1.1,1.2,2.5,1.7,4.1,1.7
		c1.6,0,3-0.6,4.1-1.7c1.1-1.2,1.7-2.6,1.7-4.2S102.9,26.9,101.7,25.8z"/>
	<path fill="#FFFFFF" d="M121.2,21.9v2.6h-8.7v4.3h7.8v2.5h-7.8v4.4h9v2.6h-11.8V21.9H121.2z"/>
	<path fill="#FFFFFF" d="M124.8,38c-0.3-0.3-0.5-0.8-0.5-1.2c0-0.5,0.2-0.9,0.5-1.2c0.3-0.3,0.7-0.5,1.2-0.5c0.5,0,0.9,0.2,1.2,0.5
		c0.3,0.3,0.5,0.7,0.5,1.2c0,0.5-0.2,0.9-0.5,1.2c-0.3,0.3-0.8,0.5-1.2,0.5C125.5,38.5,125.1,38.3,124.8,38z"/>
	<path fill="#FFFFFF" d="M131.6,21.9h2.8v16.3h-2.8V21.9z"/>
	<path fill="#FFFFFF" d="M145,24.5v13.8h-2.8V24.5h-5v-2.5H150v2.5H145z"/>
</g>
</svg>
